name C:\Users\u0101727\Documents\MyRepositories\upper-imu-dc\Results\main_mocap_tracking\Case_6\FLX01_linearAccelerations.mot
datacolumns 4
datarows 82
range 3.51000000 4.32000000
endheader 
time	radius_imu_x	radius_imu_y	radius_imu_z	
          3.51000000	         -2.06464976	         -9.26445092	          2.68434235	
          3.52000000	         -2.13534895	         -9.25904720	          2.68111523	
          3.53000000	         -2.14976380	         -9.22224188	          2.70566779	
          3.54000000	         -2.11807798	         -9.16669063	          2.75689276	
          3.55000000	         -2.05803067	         -9.10799230	          2.83048359	
          3.56000000	         -1.98576683	         -9.05720713	          2.92058771	
          3.57000000	         -1.91533156	         -9.01879714	          3.01913608	
          3.58000000	         -1.86128703	         -8.99513194	          3.11610549	
          3.59000000	         -1.83777764	         -8.98895357	          3.20299955	
          3.60000000	         -1.85221481	         -8.99921527	          3.27673548	
          3.61000000	         -1.89829656	         -9.01954126	          3.33816679	
          3.62000000	         -1.95802688	         -9.04102145	          3.38762662	
          3.63000000	         -2.01372780	         -9.05657975	          3.42446027	
          3.64000000	         -2.05538273	         -9.06349706	          3.44844694	
          3.65000000	         -2.07619569	         -9.06239142	          3.46094412	
          3.66000000	         -2.07138105	         -9.05490186	          3.46381925	
          3.67000000	         -2.04232820	         -9.04236963	          3.45762067	
          3.68000000	         -1.99483021	         -9.02558122	          3.44171726	
          3.69000000	         -1.93073100	         -9.00551907	          3.41589687	
          3.70000000	         -1.84410009	         -8.98519396	          3.38113236	
          3.71000000	         -1.73174618	         -8.97079798	          3.33902874	
          3.72000000	         -1.60181757	         -8.96940742	          3.29087890	
          3.73000000	         -1.46713680	         -8.98433757	          3.23737341	
          3.74000000	         -1.33575253	         -9.01195887	          3.17900979	
          3.75000000	         -1.20905641	         -9.04510940	          3.11604487	
          3.76000000	         -1.08599092	         -9.07888595	          3.04986316	
          3.77000000	         -0.96850488	         -9.11200684	          2.98405915	
          3.78000000	         -0.86454264	         -9.14191184	          2.92386033	
          3.79000000	         -0.78638591	         -9.16030546	          2.87435419	
          3.80000000	         -0.74323334	         -9.15494925	          2.83851392	
          3.81000000	         -0.73216519	         -9.11591866	          2.81690412	
          3.82000000	         -0.73196621	         -9.04099272	          2.80990155	
          3.83000000	         -0.71178223	         -8.93672628	          2.81900718	
          3.84000000	         -0.66050162	         -8.81565181	          2.84439321	
          3.85000000	         -0.60521253	         -8.69292902	          2.88263092	
          3.86000000	         -0.58640605	         -8.58424520	          2.92921344	
          3.87000000	         -0.62202898	         -8.50374027	          2.98243844	
          3.88000000	         -0.70490714	         -8.46079473	          3.04357618	
          3.89000000	         -0.81983621	         -8.45609149	          3.11449855	
          3.90000000	         -0.94934300	         -8.47879043	          3.19531856	
          3.91000000	         -1.06961130	         -8.50912305	          3.28292675	
          3.92000000	         -1.15469155	         -8.52897092	          3.37170688	
          3.93000000	         -1.19151160	         -8.53320787	          3.45535803	
          3.94000000	         -1.18821152	         -8.52973310	          3.52723050	
          3.95000000	         -1.16510338	         -8.52803667	          3.58032986	
          3.96000000	         -1.14124019	         -8.52902094	          3.60947098	
          3.97000000	         -1.12819985	         -8.52385999	          3.61385065	
          3.98000000	         -1.12717909	         -8.49914989	          3.59635359	
          3.99000000	         -1.12926065	         -8.44401860	          3.56053188	
          4.00000000	         -1.12330278	         -8.35554528	          3.50919010	
          4.01000000	         -1.10602706	         -8.23926930	          3.44530200	
          4.02000000	         -1.08361924	         -8.10463075	          3.37261244	
          4.03000000	         -1.06428710	         -7.96110151	          3.29512544	
          4.04000000	         -1.05365630	         -7.81891431	          3.21707785	
          4.05000000	         -1.06137626	         -7.69114048	          3.14383586	
          4.06000000	         -1.10442708	         -7.59204766	          3.08168022	
          4.07000000	         -1.19737437	         -7.53136699	          3.03696715	
          4.08000000	         -1.34499158	         -7.50841578	          3.01765071	
          4.09000000	         -1.54521461	         -7.51374014	          3.03356140	
          4.10000000	         -1.79352620	         -7.53716583	          3.09072612	
          4.11000000	         -2.08471854	         -7.57253936	          3.18655858	
          4.12000000	         -2.40733587	         -7.61212720	          3.31341467	
          4.13000000	         -2.73533950	         -7.64006754	          3.46555906	
          4.14000000	         -3.03346282	         -7.63665516	          3.63964604	
          4.15000000	         -3.27561100	         -7.58968583	          3.83011390	
          4.16000000	         -3.47081521	         -7.50048819	          4.02407615	
          4.17000000	         -3.66788055	         -7.37905448	          4.20062497	
          4.18000000	         -3.90092324	         -7.23361625	          4.34246293	
          4.19000000	         -4.14460748	         -7.06798828	          4.44626141	
          4.20000000	         -4.35878787	         -6.89075302	          4.51773504	
          4.21000000	         -4.54005946	         -6.72201340	          4.56258437	
          4.22000000	         -4.69411143	         -6.58421221	          4.58705854	
          4.23000000	         -4.79534549	         -6.48650863	          4.60206220	
          4.24000000	         -4.80055536	         -6.41792160	          4.62265726	
          4.25000000	         -4.68304449	         -6.35135090	          4.66349232	
          4.26000000	         -4.45833167	         -6.25683894	          4.73054083	
          4.27000000	         -4.19238770	         -6.11976645	          4.81373149	
          4.28000000	         -3.96858382	         -5.94978406	          4.89377375	
          4.29000000	         -3.84397509	         -5.77078004	          4.95634502	
          4.30000000	         -3.84479402	         -5.60135901	          4.99893527	
          4.31000000	         -3.96056739	         -5.44324754	          5.03276235	
          4.32000000	         -4.13715319	         -5.28703297	          5.07979563	
